STARTFONT 2.1
FONT --Onyx-Regular-R-Normal--8-80-72-72-C-70-ISO8859-1
SIZE 8 72 72
FONTBOUNDINGBOX 6 8 0 -1
METRICSSET 2
STARTPROPERTIES 18
PIXEL_SIZE 8
RESOLUTION_X 72
RESOLUTION_Y 72
POINT_SIZE 80
FACE_NAME "Onyx Regular 7x9"
FONT_VERSION "1"
FOUNDRY ""
FAMILY_NAME "Onyx"
WEIGHT_NAME "Regular"
RELATIVE_WEIGHT 50
SLANT "R"
SPACING "C"
SETWIDTH_NAME "Normal"
RELATIVE_SETWIDTH 50
ADD_STYLE_NAME ""
AVERAGE_WIDTH 70
CHARSET_REGISTRY "ISO8859"
CHARSET_ENCODING "1"
ENDPROPERTIES
CHARS 97
STARTCHAR space
ENCODING 32
SWIDTH 875 0
DWIDTH 7 0
BBX 7 9 0 -2
VVECTOR 4 7
SWIDTH1 0 -1125
DWIDTH1 0 -9
BITMAP 
00
00
00
00
00
00
00
00
00
ENDCHAR
STARTCHAR exclam
ENCODING 33
SWIDTH 875 0
DWIDTH 7 0
BBX 7 9 0 -2
VVECTOR 4 7
SWIDTH1 0 -1125
DWIDTH1 0 -9
BITMAP 
30
30
30
60
60
00
60
60
00
ENDCHAR
STARTCHAR quotedbl
ENCODING 34
SWIDTH 875 0
DWIDTH 7 0
BBX 7 9 0 -2
VVECTOR 4 7
SWIDTH1 0 -1125
DWIDTH1 0 -9
BITMAP 
6C
6C
D8
00
00
00
00
00
00
ENDCHAR
STARTCHAR numbersign
ENCODING 35
SWIDTH 875 0
DWIDTH 7 0
BBX 7 9 0 -2
VVECTOR 4 7
SWIDTH1 0 -1125
DWIDTH1 0 -9
BITMAP 
68
68
FC
68
68
FC
68
68
00
ENDCHAR
STARTCHAR dollar
ENCODING 36
SWIDTH 875 0
DWIDTH 7 0
BBX 7 9 0 -2
VVECTOR 4 7
SWIDTH1 0 -1125
DWIDTH1 0 -9
BITMAP 
78
A4
A0
78
2C
2C
AC
78
00
ENDCHAR
STARTCHAR percent
ENCODING 37
SWIDTH 875 0
DWIDTH 7 0
BBX 7 9 0 -2
VVECTOR 4 7
SWIDTH1 0 -1125
DWIDTH1 0 -9
BITMAP 
48
A8
50
10
20
28
54
48
00
ENDCHAR
STARTCHAR ampersand
ENCODING 38
SWIDTH 875 0
DWIDTH 7 0
BBX 7 9 0 -2
VVECTOR 4 7
SWIDTH1 0 -1125
DWIDTH1 0 -9
BITMAP 
60
90
90
60
E0
D4
C8
74
00
ENDCHAR
STARTCHAR quotesingle
ENCODING 39
SWIDTH 875 0
DWIDTH 7 0
BBX 7 9 0 -2
VVECTOR 4 7
SWIDTH1 0 -1125
DWIDTH1 0 -9
BITMAP 
30
30
60
00
00
00
00
00
00
ENDCHAR
STARTCHAR parenleft
ENCODING 40
SWIDTH 875 0
DWIDTH 7 0
BBX 7 9 0 -2
VVECTOR 4 7
SWIDTH1 0 -1125
DWIDTH1 0 -9
BITMAP 
10
20
60
60
60
60
30
18
00
ENDCHAR
STARTCHAR parenright
ENCODING 41
SWIDTH 875 0
DWIDTH 7 0
BBX 7 9 0 -2
VVECTOR 4 7
SWIDTH1 0 -1125
DWIDTH1 0 -9
BITMAP 
20
10
18
18
18
18
30
60
00
ENDCHAR
STARTCHAR asterisk
ENCODING 42
SWIDTH 875 0
DWIDTH 7 0
BBX 7 9 0 -2
VVECTOR 4 7
SWIDTH1 0 -1125
DWIDTH1 0 -9
BITMAP 
00
48
30
FC
30
48
00
00
00
ENDCHAR
STARTCHAR plus
ENCODING 43
SWIDTH 875 0
DWIDTH 7 0
BBX 7 9 0 -2
VVECTOR 4 7
SWIDTH1 0 -1125
DWIDTH1 0 -9
BITMAP 
00
30
30
FC
30
30
00
00
00
ENDCHAR
STARTCHAR comma
ENCODING 44
SWIDTH 875 0
DWIDTH 7 0
BBX 7 9 0 -2
VVECTOR 4 7
SWIDTH1 0 -1125
DWIDTH1 0 -9
BITMAP 
00
00
00
00
00
30
30
60
00
ENDCHAR
STARTCHAR hyphen
ENCODING 45
SWIDTH 875 0
DWIDTH 7 0
BBX 7 9 0 -2
VVECTOR 4 7
SWIDTH1 0 -1125
DWIDTH1 0 -9
BITMAP 
00
00
00
00
FC
00
00
00
00
ENDCHAR
STARTCHAR period
ENCODING 46
SWIDTH 875 0
DWIDTH 7 0
BBX 7 9 0 -2
VVECTOR 4 7
SWIDTH1 0 -1125
DWIDTH1 0 -9
BITMAP 
00
00
00
00
00
00
30
30
00
ENDCHAR
STARTCHAR slash
ENCODING 47
SWIDTH 875 0
DWIDTH 7 0
BBX 7 9 0 -2
VVECTOR 4 7
SWIDTH1 0 -1125
DWIDTH1 0 -9
BITMAP 
18
18
30
30
60
60
C0
C0
00
ENDCHAR
STARTCHAR zero
ENCODING 48
SWIDTH 875 0
DWIDTH 7 0
BBX 7 9 0 -2
VVECTOR 4 7
SWIDTH1 0 -1125
DWIDTH1 0 -9
BITMAP 
78
C4
CC
D4
E4
C4
C4
78
00
ENDCHAR
STARTCHAR one
ENCODING 49
SWIDTH 875 0
DWIDTH 7 0
BBX 7 9 0 -2
VVECTOR 4 7
SWIDTH1 0 -1125
DWIDTH1 0 -9
BITMAP 
30
70
30
30
30
30
30
78
00
ENDCHAR
STARTCHAR two
ENCODING 50
SWIDTH 875 0
DWIDTH 7 0
BBX 7 9 0 -2
VVECTOR 4 7
SWIDTH1 0 -1125
DWIDTH1 0 -9
BITMAP 
78
8C
8C
0C
18
30
60
FC
00
ENDCHAR
STARTCHAR three
ENCODING 51
SWIDTH 875 0
DWIDTH 7 0
BBX 7 9 0 -2
VVECTOR 4 7
SWIDTH1 0 -1125
DWIDTH1 0 -9
BITMAP 
78
8C
8C
38
0C
8C
8C
78
00
ENDCHAR
STARTCHAR four
ENCODING 52
SWIDTH 875 0
DWIDTH 7 0
BBX 7 9 0 -2
VVECTOR 4 7
SWIDTH1 0 -1125
DWIDTH1 0 -9
BITMAP 
18
38
58
98
98
FC
18
18
00
ENDCHAR
STARTCHAR five
ENCODING 53
SWIDTH 875 0
DWIDTH 7 0
BBX 7 9 0 -2
VVECTOR 4 7
SWIDTH1 0 -1125
DWIDTH1 0 -9
BITMAP 
FC
80
80
F8
0C
8C
8C
78
00
ENDCHAR
STARTCHAR six
ENCODING 54
SWIDTH 875 0
DWIDTH 7 0
BBX 7 9 0 -2
VVECTOR 4 7
SWIDTH1 0 -1125
DWIDTH1 0 -9
BITMAP 
78
C0
C0
F8
C4
C4
C4
78
00
ENDCHAR
STARTCHAR seven
ENCODING 55
SWIDTH 875 0
DWIDTH 7 0
BBX 7 9 0 -2
VVECTOR 4 7
SWIDTH1 0 -1125
DWIDTH1 0 -9
BITMAP 
FC
0C
1C
38
30
30
30
30
00
ENDCHAR
STARTCHAR eight
ENCODING 56
SWIDTH 875 0
DWIDTH 7 0
BBX 7 9 0 -2
VVECTOR 4 7
SWIDTH1 0 -1125
DWIDTH1 0 -9
BITMAP 
78
8C
8C
78
8C
8C
8C
78
00
ENDCHAR
STARTCHAR nine
ENCODING 57
SWIDTH 875 0
DWIDTH 7 0
BBX 7 9 0 -2
VVECTOR 4 7
SWIDTH1 0 -1125
DWIDTH1 0 -9
BITMAP 
78
8C
8C
7C
0C
8C
8C
78
00
ENDCHAR
STARTCHAR colon
ENCODING 58
SWIDTH 875 0
DWIDTH 7 0
BBX 7 9 0 -2
VVECTOR 4 7
SWIDTH1 0 -1125
DWIDTH1 0 -9
BITMAP 
00
30
30
00
00
30
30
00
00
ENDCHAR
STARTCHAR semicolon
ENCODING 59
SWIDTH 875 0
DWIDTH 7 0
BBX 7 9 0 -2
VVECTOR 4 7
SWIDTH1 0 -1125
DWIDTH1 0 -9
BITMAP 
00
30
30
00
00
30
30
60
00
ENDCHAR
STARTCHAR less
ENCODING 60
SWIDTH 875 0
DWIDTH 7 0
BBX 7 9 0 -2
VVECTOR 4 7
SWIDTH1 0 -1125
DWIDTH1 0 -9
BITMAP 
10
20
40
C0
60
30
18
00
00
ENDCHAR
STARTCHAR equal
ENCODING 61
SWIDTH 875 0
DWIDTH 7 0
BBX 7 9 0 -2
VVECTOR 4 7
SWIDTH1 0 -1125
DWIDTH1 0 -9
BITMAP 
00
00
F8
00
F8
F8
00
00
00
ENDCHAR
STARTCHAR greater
ENCODING 62
SWIDTH 875 0
DWIDTH 7 0
BBX 7 9 0 -2
VVECTOR 4 7
SWIDTH1 0 -1125
DWIDTH1 0 -9
BITMAP 
40
20
10
18
30
60
C0
00
00
ENDCHAR
STARTCHAR question
ENCODING 63
SWIDTH 875 0
DWIDTH 7 0
BBX 7 9 0 -2
VVECTOR 4 7
SWIDTH1 0 -1125
DWIDTH1 0 -9
BITMAP 
78
8C
8C
18
30
00
30
30
00
ENDCHAR
STARTCHAR at
ENCODING 64
SWIDTH 875 0
DWIDTH 7 0
BBX 7 9 0 -2
VVECTOR 4 7
SWIDTH1 0 -1125
DWIDTH1 0 -9
BITMAP 
78
C4
CC
D4
D4
CC
C0
78
00
ENDCHAR
STARTCHAR A
ENCODING 65
SWIDTH 875 0
DWIDTH 7 0
BBX 7 9 0 -2
VVECTOR 4 7
SWIDTH1 0 -1125
DWIDTH1 0 -9
BITMAP 
78
C4
C4
FC
C4
C4
C4
C4
00
ENDCHAR
STARTCHAR B
ENCODING 66
SWIDTH 875 0
DWIDTH 7 0
BBX 7 9 0 -2
VVECTOR 4 7
SWIDTH1 0 -1125
DWIDTH1 0 -9
BITMAP 
F8
C4
C4
F8
C4
C4
C4
F8
00
ENDCHAR
STARTCHAR C
ENCODING 67
SWIDTH 875 0
DWIDTH 7 0
BBX 7 9 0 -2
VVECTOR 4 7
SWIDTH1 0 -1125
DWIDTH1 0 -9
BITMAP 
78
C4
C4
C0
C0
C4
C4
78
00
ENDCHAR
STARTCHAR D
ENCODING 68
SWIDTH 875 0
DWIDTH 7 0
BBX 7 9 0 -2
VVECTOR 4 7
SWIDTH1 0 -1125
DWIDTH1 0 -9
BITMAP 
F0
C8
C4
C4
C4
C4
C8
F0
00
ENDCHAR
STARTCHAR E
ENCODING 69
SWIDTH 875 0
DWIDTH 7 0
BBX 7 9 0 -2
VVECTOR 4 7
SWIDTH1 0 -1125
DWIDTH1 0 -9
BITMAP 
FC
C0
C0
FC
C0
C0
C0
FC
00
ENDCHAR
STARTCHAR F
ENCODING 70
SWIDTH 875 0
DWIDTH 7 0
BBX 7 9 0 -2
VVECTOR 4 7
SWIDTH1 0 -1125
DWIDTH1 0 -9
BITMAP 
FC
C0
C0
F0
C0
C0
C0
C0
00
ENDCHAR
STARTCHAR G
ENCODING 71
SWIDTH 875 0
DWIDTH 7 0
BBX 7 9 0 -2
VVECTOR 4 7
SWIDTH1 0 -1125
DWIDTH1 0 -9
BITMAP 
78
C4
C4
C0
DC
C4
C4
78
00
ENDCHAR
STARTCHAR H
ENCODING 72
SWIDTH 875 0
DWIDTH 7 0
BBX 7 9 0 -2
VVECTOR 4 7
SWIDTH1 0 -1125
DWIDTH1 0 -9
BITMAP 
C4
C4
C4
FC
C4
C4
C4
C4
00
ENDCHAR
STARTCHAR I
ENCODING 73
SWIDTH 875 0
DWIDTH 7 0
BBX 7 9 0 -2
VVECTOR 4 7
SWIDTH1 0 -1125
DWIDTH1 0 -9
BITMAP 
78
30
30
30
30
30
30
78
00
ENDCHAR
STARTCHAR J
ENCODING 74
SWIDTH 875 0
DWIDTH 7 0
BBX 7 9 0 -2
VVECTOR 4 7
SWIDTH1 0 -1125
DWIDTH1 0 -9
BITMAP 
7C
18
18
18
18
98
98
70
00
ENDCHAR
STARTCHAR K
ENCODING 75
SWIDTH 875 0
DWIDTH 7 0
BBX 7 9 0 -2
VVECTOR 4 7
SWIDTH1 0 -1125
DWIDTH1 0 -9
BITMAP 
C4
C8
D0
E0
E0
D0
C8
C4
00
ENDCHAR
STARTCHAR L
ENCODING 76
SWIDTH 875 0
DWIDTH 7 0
BBX 7 9 0 -2
VVECTOR 4 7
SWIDTH1 0 -1125
DWIDTH1 0 -9
BITMAP 
C0
C0
C0
C0
C0
C0
C0
FC
00
ENDCHAR
STARTCHAR M
ENCODING 77
SWIDTH 875 0
DWIDTH 7 0
BBX 7 9 0 -2
VVECTOR 4 7
SWIDTH1 0 -1125
DWIDTH1 0 -9
BITMAP 
C4
C4
EC
D4
D4
C4
C4
C4
00
ENDCHAR
STARTCHAR N
ENCODING 78
SWIDTH 875 0
DWIDTH 7 0
BBX 7 9 0 -2
VVECTOR 4 7
SWIDTH1 0 -1125
DWIDTH1 0 -9
BITMAP 
C4
C4
E4
D4
CC
C4
C4
C4
00
ENDCHAR
STARTCHAR O
ENCODING 79
SWIDTH 875 0
DWIDTH 7 0
BBX 7 9 0 -2
VVECTOR 4 7
SWIDTH1 0 -1125
DWIDTH1 0 -9
BITMAP 
78
C4
C4
C4
C4
C4
C4
78
00
ENDCHAR
STARTCHAR P
ENCODING 80
SWIDTH 875 0
DWIDTH 7 0
BBX 7 9 0 -2
VVECTOR 4 7
SWIDTH1 0 -1125
DWIDTH1 0 -9
BITMAP 
F8
C4
C4
C4
F8
C0
C0
C0
00
ENDCHAR
STARTCHAR Q
ENCODING 81
SWIDTH 875 0
DWIDTH 7 0
BBX 7 9 0 -2
VVECTOR 4 7
SWIDTH1 0 -1125
DWIDTH1 0 -9
BITMAP 
78
C4
C4
C4
D4
D4
C8
74
00
ENDCHAR
STARTCHAR R
ENCODING 82
SWIDTH 875 0
DWIDTH 7 0
BBX 7 9 0 -2
VVECTOR 4 7
SWIDTH1 0 -1125
DWIDTH1 0 -9
BITMAP 
F8
C4
C4
C4
F8
D0
C8
C4
00
ENDCHAR
STARTCHAR S
ENCODING 83
SWIDTH 875 0
DWIDTH 7 0
BBX 7 9 0 -2
VVECTOR 4 7
SWIDTH1 0 -1125
DWIDTH1 0 -9
BITMAP 
78
84
80
78
0C
0C
8C
78
00
ENDCHAR
STARTCHAR T
ENCODING 84
SWIDTH 875 0
DWIDTH 7 0
BBX 7 9 0 -2
VVECTOR 4 7
SWIDTH1 0 -1125
DWIDTH1 0 -9
BITMAP 
FC
30
30
30
30
30
30
30
00
ENDCHAR
STARTCHAR U
ENCODING 85
SWIDTH 875 0
DWIDTH 7 0
BBX 7 9 0 -2
VVECTOR 4 7
SWIDTH1 0 -1125
DWIDTH1 0 -9
BITMAP 
C4
C4
C4
C4
C4
C4
C4
78
00
ENDCHAR
STARTCHAR V
ENCODING 86
SWIDTH 875 0
DWIDTH 7 0
BBX 7 9 0 -2
VVECTOR 4 7
SWIDTH1 0 -1125
DWIDTH1 0 -9
BITMAP 
C4
C4
C4
C4
C4
64
34
18
00
ENDCHAR
STARTCHAR W
ENCODING 87
SWIDTH 875 0
DWIDTH 7 0
BBX 7 9 0 -2
VVECTOR 4 7
SWIDTH1 0 -1125
DWIDTH1 0 -9
BITMAP 
C4
C4
C4
C4
C4
D4
D4
68
00
ENDCHAR
STARTCHAR X
ENCODING 88
SWIDTH 875 0
DWIDTH 7 0
BBX 7 9 0 -2
VVECTOR 4 7
SWIDTH1 0 -1125
DWIDTH1 0 -9
BITMAP 
C4
C4
68
70
38
58
8C
8C
00
ENDCHAR
STARTCHAR Y
ENCODING 89
SWIDTH 875 0
DWIDTH 7 0
BBX 7 9 0 -2
VVECTOR 4 7
SWIDTH1 0 -1125
DWIDTH1 0 -9
BITMAP 
C4
C4
68
68
30
30
30
30
00
ENDCHAR
STARTCHAR Z
ENCODING 90
SWIDTH 875 0
DWIDTH 7 0
BBX 7 9 0 -2
VVECTOR 4 7
SWIDTH1 0 -1125
DWIDTH1 0 -9
BITMAP 
FC
0C
18
30
30
60
C0
FC
00
ENDCHAR
STARTCHAR bracketleft
ENCODING 91
SWIDTH 875 0
DWIDTH 7 0
BBX 7 9 0 -2
VVECTOR 4 7
SWIDTH1 0 -1125
DWIDTH1 0 -9
BITMAP 
78
60
60
60
60
60
60
78
00
ENDCHAR
STARTCHAR backslash
ENCODING 92
SWIDTH 875 0
DWIDTH 7 0
BBX 7 9 0 -2
VVECTOR 4 7
SWIDTH1 0 -1125
DWIDTH1 0 -9
BITMAP 
C0
C0
60
60
30
30
18
18
00
ENDCHAR
STARTCHAR bracketright
ENCODING 93
SWIDTH 875 0
DWIDTH 7 0
BBX 7 9 0 -2
VVECTOR 4 7
SWIDTH1 0 -1125
DWIDTH1 0 -9
BITMAP 
78
18
18
18
18
18
18
78
00
ENDCHAR
STARTCHAR asciicircum
ENCODING 94
SWIDTH 875 0
DWIDTH 7 0
BBX 7 9 0 -2
VVECTOR 4 7
SWIDTH1 0 -1125
DWIDTH1 0 -9
BITMAP 
20
70
C8
00
00
00
00
00
00
ENDCHAR
STARTCHAR underscore
ENCODING 95
SWIDTH 875 0
DWIDTH 7 0
BBX 7 9 0 -2
VVECTOR 4 7
SWIDTH1 0 -1125
DWIDTH1 0 -9
BITMAP 
00
00
00
00
00
00
00
FC
00
ENDCHAR
STARTCHAR grave
ENCODING 96
SWIDTH 875 0
DWIDTH 7 0
BBX 7 9 0 -2
VVECTOR 4 7
SWIDTH1 0 -1125
DWIDTH1 0 -9
BITMAP 
60
60
30
00
00
00
00
00
00
ENDCHAR
STARTCHAR a
ENCODING 97
SWIDTH 875 0
DWIDTH 7 0
BBX 7 9 0 -2
VVECTOR 4 7
SWIDTH1 0 -1125
DWIDTH1 0 -9
BITMAP 
00
00
78
0C
7C
8C
8C
7C
00
ENDCHAR
STARTCHAR b
ENCODING 98
SWIDTH 875 0
DWIDTH 7 0
BBX 7 9 0 -2
VVECTOR 4 7
SWIDTH1 0 -1125
DWIDTH1 0 -9
BITMAP 
C0
C0
C0
F8
C4
C4
C4
F8
00
ENDCHAR
STARTCHAR c
ENCODING 99
SWIDTH 875 0
DWIDTH 7 0
BBX 7 9 0 -2
VVECTOR 4 7
SWIDTH1 0 -1125
DWIDTH1 0 -9
BITMAP 
00
00
78
C4
C0
C0
C4
78
00
ENDCHAR
STARTCHAR d
ENCODING 100
SWIDTH 875 0
DWIDTH 7 0
BBX 7 9 0 -2
VVECTOR 4 7
SWIDTH1 0 -1125
DWIDTH1 0 -9
BITMAP 
0C
0C
0C
7C
8C
8C
8C
7C
00
ENDCHAR
STARTCHAR e
ENCODING 101
SWIDTH 875 0
DWIDTH 7 0
BBX 7 9 0 -2
VVECTOR 4 7
SWIDTH1 0 -1125
DWIDTH1 0 -9
BITMAP 
00
00
78
C4
C4
FC
C0
78
00
ENDCHAR
STARTCHAR f
ENCODING 102
SWIDTH 875 0
DWIDTH 7 0
BBX 7 9 0 -2
VVECTOR 4 7
SWIDTH1 0 -1125
DWIDTH1 0 -9
BITMAP 
38
64
64
60
FC
60
60
60
00
ENDCHAR
STARTCHAR g
ENCODING 103
SWIDTH 875 0
DWIDTH 7 0
BBX 7 9 0 -2
VVECTOR 4 7
SWIDTH1 0 -1125
DWIDTH1 0 -9
BITMAP 
00
00
78
8C
8C
7C
0C
78
00
ENDCHAR
STARTCHAR h
ENCODING 104
SWIDTH 875 0
DWIDTH 7 0
BBX 7 9 0 -2
VVECTOR 4 7
SWIDTH1 0 -1125
DWIDTH1 0 -9
BITMAP 
C0
C0
C0
D8
E4
C4
C4
C4
00
ENDCHAR
STARTCHAR i
ENCODING 105
SWIDTH 875 0
DWIDTH 7 0
BBX 7 9 0 -2
VVECTOR 4 7
SWIDTH1 0 -1125
DWIDTH1 0 -9
BITMAP 
30
30
00
30
30
30
30
18
00
ENDCHAR
STARTCHAR j
ENCODING 106
SWIDTH 875 0
DWIDTH 7 0
BBX 7 9 0 -2
VVECTOR 4 7
SWIDTH1 0 -1125
DWIDTH1 0 -9
BITMAP 
0C
0C
00
0C
0C
8C
8C
78
00
ENDCHAR
STARTCHAR k
ENCODING 107
SWIDTH 875 0
DWIDTH 7 0
BBX 7 9 0 -2
VVECTOR 4 7
SWIDTH1 0 -1125
DWIDTH1 0 -9
BITMAP 
C0
C0
C8
D0
E0
D0
C8
C4
00
ENDCHAR
STARTCHAR l
ENCODING 108
SWIDTH 875 0
DWIDTH 7 0
BBX 7 9 0 -2
VVECTOR 4 7
SWIDTH1 0 -1125
DWIDTH1 0 -9
BITMAP 
30
30
30
30
30
30
30
18
00
ENDCHAR
STARTCHAR m
ENCODING 109
SWIDTH 875 0
DWIDTH 7 0
BBX 7 9 0 -2
VVECTOR 4 7
SWIDTH1 0 -1125
DWIDTH1 0 -9
BITMAP 
00
00
68
D4
D4
D4
C4
C4
00
ENDCHAR
STARTCHAR n
ENCODING 110
SWIDTH 875 0
DWIDTH 7 0
BBX 7 9 0 -2
VVECTOR 4 7
SWIDTH1 0 -1125
DWIDTH1 0 -9
BITMAP 
00
00
78
C4
C4
C4
C4
C4
00
ENDCHAR
STARTCHAR o
ENCODING 111
SWIDTH 875 0
DWIDTH 7 0
BBX 7 9 0 -2
VVECTOR 4 7
SWIDTH1 0 -1125
DWIDTH1 0 -9
BITMAP 
00
00
78
C4
C4
C4
C4
78
00
ENDCHAR
STARTCHAR p
ENCODING 112
SWIDTH 875 0
DWIDTH 7 0
BBX 7 9 0 -2
VVECTOR 4 7
SWIDTH1 0 -1125
DWIDTH1 0 -9
BITMAP 
00
00
F8
C4
C4
F8
C0
C0
00
ENDCHAR
STARTCHAR q
ENCODING 113
SWIDTH 875 0
DWIDTH 7 0
BBX 7 9 0 -2
VVECTOR 4 7
SWIDTH1 0 -1125
DWIDTH1 0 -9
BITMAP 
00
00
78
8C
8C
7C
0C
0C
00
ENDCHAR
STARTCHAR r
ENCODING 114
SWIDTH 875 0
DWIDTH 7 0
BBX 7 9 0 -2
VVECTOR 4 7
SWIDTH1 0 -1125
DWIDTH1 0 -9
BITMAP 
00
00
78
C4
C4
C0
C0
C0
00
ENDCHAR
STARTCHAR s
ENCODING 115
SWIDTH 875 0
DWIDTH 7 0
BBX 7 9 0 -2
VVECTOR 4 7
SWIDTH1 0 -1125
DWIDTH1 0 -9
BITMAP 
00
00
78
80
78
0C
0C
78
00
ENDCHAR
STARTCHAR t
ENCODING 116
SWIDTH 875 0
DWIDTH 7 0
BBX 7 9 0 -2
VVECTOR 4 7
SWIDTH1 0 -1125
DWIDTH1 0 -9
BITMAP 
60
60
FC
60
60
64
64
38
00
ENDCHAR
STARTCHAR u
ENCODING 117
SWIDTH 875 0
DWIDTH 7 0
BBX 7 9 0 -2
VVECTOR 4 7
SWIDTH1 0 -1125
DWIDTH1 0 -9
BITMAP 
00
00
8C
8C
8C
8C
8C
7C
00
ENDCHAR
STARTCHAR v
ENCODING 118
SWIDTH 875 0
DWIDTH 7 0
BBX 7 9 0 -2
VVECTOR 4 7
SWIDTH1 0 -1125
DWIDTH1 0 -9
BITMAP 
00
00
8C
8C
58
58
30
30
00
ENDCHAR
STARTCHAR w
ENCODING 119
SWIDTH 875 0
DWIDTH 7 0
BBX 7 9 0 -2
VVECTOR 4 7
SWIDTH1 0 -1125
DWIDTH1 0 -9
BITMAP 
00
00
8C
8C
AC
AC
AC
58
00
ENDCHAR
STARTCHAR x
ENCODING 120
SWIDTH 875 0
DWIDTH 7 0
BBX 7 9 0 -2
VVECTOR 4 7
SWIDTH1 0 -1125
DWIDTH1 0 -9
BITMAP 
00
00
C4
68
30
30
58
8C
00
ENDCHAR
STARTCHAR y
ENCODING 121
SWIDTH 875 0
DWIDTH 7 0
BBX 7 9 0 -2
VVECTOR 4 7
SWIDTH1 0 -1125
DWIDTH1 0 -9
BITMAP 
00
00
8C
8C
8C
7C
0C
78
00
ENDCHAR
STARTCHAR z
ENCODING 122
SWIDTH 875 0
DWIDTH 7 0
BBX 7 9 0 -2
VVECTOR 4 7
SWIDTH1 0 -1125
DWIDTH1 0 -9
BITMAP 
00
00
FC
0C
18
60
C0
FC
00
ENDCHAR
STARTCHAR braceleft
ENCODING 123
SWIDTH 875 0
DWIDTH 7 0
BBX 7 9 0 -2
VVECTOR 4 7
SWIDTH1 0 -1125
DWIDTH1 0 -9
BITMAP 
18
10
30
60
60
30
10
18
00
ENDCHAR
STARTCHAR bar
ENCODING 124
SWIDTH 875 0
DWIDTH 7 0
BBX 7 9 0 -2
VVECTOR 4 7
SWIDTH1 0 -1125
DWIDTH1 0 -9
BITMAP 
30
30
30
30
30
30
30
30
00
ENDCHAR
STARTCHAR braceright
ENCODING 125
SWIDTH 875 0
DWIDTH 7 0
BBX 7 9 0 -2
VVECTOR 4 7
SWIDTH1 0 -1125
DWIDTH1 0 -9
BITMAP 
60
20
30
18
18
30
20
60
00
ENDCHAR
STARTCHAR asciitilde
ENCODING 126
SWIDTH 875 0
DWIDTH 7 0
BBX 7 9 0 -2
VVECTOR 4 7
SWIDTH1 0 -1125
DWIDTH1 0 -9
BITMAP 
24
78
90
00
00
00
00
00
00
ENDCHAR
STARTCHAR char7F
ENCODING 127
SWIDTH 875 0
DWIDTH 7 0
BBX 7 9 0 -2
VVECTOR 4 7
SWIDTH1 0 -1125
DWIDTH1 0 -9
BITMAP 
30
60
C4
8C
18
30
60
C0
00
ENDCHAR
STARTCHAR default
ENCODING -1
SWIDTH 875 0
DWIDTH 7 0
BBX 7 9 0 -2
VVECTOR 4 7
SWIDTH1 0 -1125
DWIDTH1 0 -9
BITMAP 
00
00
00
00
00
00
00
00
00
ENDCHAR
ENDFONT
